<?xml version="1.0" standalone="no"?>
<!DOCTYPE svg PUBLIC "-//W3C//DTD SVG 20010904//EN"
 "http://www.w3.org/TR/2001/REC-SVG-20010904/DTD/svg10.dtd">
<svg version="1.0" xmlns="http://www.w3.org/2000/svg"
 width="1607.000000pt" height="1277.000000pt" viewBox="0 0 1607.000000 1277.000000"
 preserveAspectRatio="xMidYMid meet">

<g transform="translate(0.000000,1277.000000) scale(0.100000,-0.100000)"
fill="#000000" stroke="none">
<path d="M7980 9629 c-61 -24 -100 -85 -100 -154 0 -50 10 -77 45 -115 l23
-25 -60 -210 c-33 -115 -63 -214 -67 -218 -5 -4 -28 40 -54 98 l-45 106 24 36
c46 68 25 177 -44 228 -17 13 -47 21 -87 23 -50 3 -66 0 -94 -20 -48 -32 -72
-68 -78 -116 -7 -49 18 -125 48 -145 18 -13 18 -17 -13 -150 -18 -76 -35 -137
-39 -137 -4 0 -27 33 -52 72 -44 71 -45 73 -30 102 33 64 13 161 -43 205 -68
53 -151 49 -219 -10 -89 -79 -62 -220 51 -271 24 -10 44 -21 44 -24 0 -3 30
-152 66 -331 36 -179 64 -326 62 -327 -2 -2 -61 -33 -133 -70 -339 -176 -570
-415 -741 -770 -143 -298 -206 -569 -205 -896 0 -453 148 -848 436 -1160 288
-313 782 -539 1258 -576 l88 -7 -3 59 -3 59 -105 11 c-198 21 -343 56 -525
127 -562 217 -920 652 -1008 1223 -36 228 -30 421 18 657 47 228 147 471 275
665 79 119 228 274 353 368 560 418 1429 431 1970 31 616 -455 869 -1330 593
-2047 -117 -303 -289 -533 -535 -718 -244 -184 -557 -295 -873 -309 l-118 -6
0 90 0 89 138 68 c178 87 202 90 377 46 197 -49 288 -34 394 65 72 67 123 153
213 352 43 98 90 198 105 222 37 63 105 134 189 196 110 82 164 181 164 302 0
72 -27 143 -105 281 -90 156 -94 178 -67 378 25 183 27 259 8 329 -19 73 -60
148 -98 180 -47 40 -160 91 -251 115 -65 16 -87 28 -128 64 -76 69 -146 99
-241 104 l-80 5 -164 158 c-143 138 -174 163 -247 198 -101 50 -206 67 -314
51 -147 -20 -231 -69 -408 -239 -188 -180 -235 -207 -389 -222 -114 -11 -180
-41 -252 -114 -100 -103 -109 -142 -90 -371 15 -177 0 -229 -99 -336 -119
-128 -155 -192 -155 -275 1 -80 26 -129 113 -221 41 -43 83 -94 93 -113 25
-48 22 -135 -11 -303 -33 -168 -31 -256 6 -330 46 -94 114 -131 339 -187 85
-22 175 -49 200 -61 29 -14 95 -72 190 -168 80 -80 166 -158 191 -173 71 -42
167 -62 231 -49 95 19 108 27 108 67 0 19 4 35 9 35 14 0 24 -122 18 -209 -2
-42 -2 -175 2 -296 l7 -220 2 188 2 187 78 0 c237 0 517 69 750 186 338 168
572 410 748 769 74 152 114 270 152 444 24 117 26 144 27 366 0 256 -7 311
-61 515 -131 486 -456 908 -872 1131 -53 29 -102 56 -108 60 -12 9 118 671
133 676 36 13 81 44 106 74 59 75 27 209 -58 245 -53 22 -126 18 -166 -9 -49
-32 -82 -100 -75 -156 4 -25 13 -55 21 -67 13 -20 11 -27 -32 -95 -56 -88 -52
-83 -57 -78 -2 2 -19 65 -36 139 l-33 136 27 28 c25 28 46 81 46 120 0 42 -41
106 -84 131 -151 89 -312 -73 -227 -228 l24 -45 -43 -98 c-23 -55 -46 -102
-49 -107 -4 -4 -35 90 -69 208 l-62 216 31 39 c106 131 -35 321 -191 259z
m102 -116 c24 -21 23 -58 -2 -83 -26 -26 -46 -25 -75 5 -29 28 -31 42 -9 73
18 26 60 29 86 5z m-434 -236 c17 -13 15 -62 -4 -81 -23 -24 -61 -20 -80 9
-38 59 27 116 84 72z m879 -3 c15 -24 15 -29 2 -53 -11 -20 -22 -26 -49 -26
-27 0 -38 6 -49 26 -13 24 -13 29 2 53 12 18 26 26 47 26 21 0 35 -8 47 -26z
m-404 -280 c41 -143 82 -275 91 -292 45 -86 136 -143 241 -150 63 -3 76 -1
125 25 47 25 64 42 118 123 34 52 62 90 62 85 0 -6 -23 -122 -52 -258 -49
-235 -53 -248 -72 -242 -270 81 -522 109 -766 86 -121 -12 -296 -45 -393 -75
-46 -14 -47 -13 -52 7 -2 12 -11 51 -20 87 -24 102 -83 400 -79 400 2 0 28
-37 57 -82 63 -97 76 -110 142 -139 122 -54 284 10 348 139 8 15 47 140 86
277 81 284 80 279 85 274 3 -2 38 -121 79 -265z m800 128 c21 -19 22 -41 1
-70 -29 -41 -104 -18 -104 33 0 57 56 77 103 37z m-1688 12 c25 -10 37 -51 24
-77 -23 -42 -57 -49 -89 -17 -47 47 1 118 65 94z m1284 -254 c23 -96 41 -178
41 -182 0 -14 -60 -38 -95 -38 -40 0 -100 27 -128 58 -17 18 -15 25 55 185 40
92 75 163 79 159 4 -4 25 -86 48 -182z m-826 25 c37 -86 67 -162 67 -170 0 -9
-21 -29 -47 -46 -42 -26 -55 -30 -101 -26 -90 7 -90 7 -41 216 24 99 46 181
49 181 3 0 35 -70 73 -155z m291 -941 c9 -8 16 -19 16 -23 0 -23 -62 -200 -74
-210 -16 -14 -42 -5 -50 16 -7 17 39 177 60 211 17 26 27 28 48 6z m215 -263
c19 -73 34 -180 27 -196 -4 -11 -15 -15 -33 -13 -24 3 -30 10 -40 53 -7 28
-16 79 -19 114 -6 54 -4 66 10 77 26 19 45 7 55 -35z m-651 -282 c62 -133 112
-248 110 -256 -3 -16 -34 -41 -41 -33 -15 21 -244 517 -240 523 2 4 16 7 31 7
25 0 34 -14 140 -241z m1285 -6 l118 -247 -21 -20 c-12 -13 -23 -17 -29 -11
-13 14 -241 499 -241 513 0 7 13 12 28 12 27 0 33 -11 145 -247z m-1399 -50
c69 -148 126 -271 126 -275 0 -8 -96 -31 -110 -26 -10 3 -240 481 -240 498 0
9 79 70 90 70 4 0 64 -120 134 -267z m1282 2 c68 -143 123 -265 124 -271 0
-11 -64 -34 -96 -34 -15 0 -44 53 -136 248 l-117 247 40 38 c22 21 45 37 50
35 6 -2 67 -121 135 -263z m-501 -374 c120 -42 215 -147 256 -283 17 -56 20
-87 17 -161 -6 -104 -22 -158 -68 -226 -71 -104 -178 -154 -330 -154 -231 0
-404 135 -440 344 -23 130 27 267 133 365 61 57 150 108 215 123 66 16 159 12
217 -8z m-972 -74 c98 -64 115 -82 100 -105 -18 -29 -55 -18 -140 43 -81 57
-96 78 -71 103 18 18 21 17 111 -41z m1643 -116 c71 -39 89 -54 89 -71 0 -45
-27 -46 -106 -5 -126 65 -146 84 -117 113 20 20 42 14 134 -37z m-1603 -362
c7 -12 2 -42 -18 -110 -32 -105 -40 -119 -65 -119 -41 0 -43 24 -12 131 17 56
37 106 44 111 18 11 39 6 51 -13z m2034 -15 c7 -20 -45 -201 -64 -220 -18 -17
-24 -17 -48 0 -19 14 -19 16 9 112 16 55 33 105 38 112 15 17 57 15 65 -4z
m-412 -30 c10 -10 13 -24 9 -38 -4 -11 -19 -59 -33 -106 -26 -81 -28 -85 -56
-85 -41 0 -42 18 -9 128 37 122 51 139 89 101z m-1241 -317 c38 -28 16 -50
-84 -84 -110 -38 -143 -39 -148 -4 -2 13 0 27 5 32 7 7 177 64 204 68 3 1 13
-5 23 -12z m-476 -169 c23 -23 12 -43 -65 -120 -78 -79 -100 -90 -123 -63 -19
23 -4 47 74 124 75 72 92 81 114 59z m1570 -229 c81 -59 95 -82 70 -107 -20
-20 -35 -14 -123 50 -61 44 -85 68 -85 83 0 54 39 46 138 -26z m-613 -94 c56
-33 92 -73 110 -124 58 -164 -56 -331 -225 -331 -245 0 -331 322 -121 452 70
44 165 45 236 3z"/>
<path d="M7911 5487 c-7 -9 -11 -33 -9 -54 l3 -38 53 -3 c40 -2 52 0 52 11 0
8 -10 18 -22 21 -23 6 -23 7 -4 21 32 25 74 18 108 -15 26 -27 30 -36 25 -68
-8 -45 -47 -82 -87 -82 -18 0 -42 12 -65 31 -30 26 -36 28 -41 15 -8 -21 21
-55 64 -73 89 -37 193 59 163 150 -24 71 -94 106 -164 82 -36 -12 -42 -12 -52
1 -10 14 -12 14 -24 1z"/>
<path d="M2690 4370 l0 -140 145 0 145 0 0 140 0 140 -145 0 -145 0 0 -140z"/>
<path d="M13080 4370 l0 -140 145 0 145 0 0 140 0 140 -145 0 -145 0 0 -140z"/>
<path d="M3738 4363 c7 -3 16 -2 19 1 4 3 -2 6 -13 5 -11 0 -14 -3 -6 -6z"/>
<path d="M4488 4363 c7 -3 16 -2 19 1 4 3 -2 6 -13 5 -11 0 -14 -3 -6 -6z"/>
<path d="M5228 4363 c7 -3 16 -2 19 1 4 3 -2 6 -13 5 -11 0 -14 -3 -6 -6z"/>
<path d="M5978 4363 c7 -3 16 -2 19 1 4 3 -2 6 -13 5 -11 0 -14 -3 -6 -6z"/>
<path d="M6728 4363 c7 -3 16 -2 19 1 4 3 -2 6 -13 5 -11 0 -14 -3 -6 -6z"/>
<path d="M7478 4363 c7 -3 16 -2 19 1 4 3 -2 6 -13 5 -11 0 -14 -3 -6 -6z"/>
<path d="M8228 4363 c7 -3 16 -2 19 1 4 3 -2 6 -13 5 -11 0 -14 -3 -6 -6z"/>
<path d="M8968 4363 c6 -2 18 -2 25 0 6 3 1 5 -13 5 -14 0 -19 -2 -12 -5z"/>
<path d="M9718 4363 c7 -3 16 -2 19 1 4 3 -2 6 -13 5 -11 0 -14 -3 -6 -6z"/>
<path d="M10468 4363 c7 -3 16 -2 19 1 4 3 -2 6 -13 5 -11 0 -14 -3 -6 -6z"/>
<path d="M11218 4363 c7 -3 16 -2 19 1 4 3 -2 6 -13 5 -11 0 -14 -3 -6 -6z"/>
<path d="M11968 4363 c7 -3 16 -2 19 1 4 3 -2 6 -13 5 -11 0 -14 -3 -6 -6z"/>
<path d="M12708 4363 c6 -2 18 -2 25 0 6 3 1 5 -13 5 -14 0 -19 -2 -12 -5z"/>
<path d="M2844 3705 c0 -269 1 -462 3 -427 l4 62 237 0 c245 0 292 6 367 41
153 72 240 260 207 450 -29 171 -132 279 -299 314 -81 17 -493 21 -493 5 0 -5
11 -10 24 -10 54 0 56 -13 56 -395 0 -266 -3 -355 -13 -368 -6 -10 -29 -20
-49 -24 l-38 -6 -3 424 -2 424 -1 -490z m496 386 c80 -40 139 -161 147 -306 6
-106 -7 -184 -43 -266 -49 -108 -112 -142 -252 -137 l-77 3 -3 355 c-1 195 0
360 2 366 7 17 185 5 226 -15z"/>
<path d="M13210 3988 l0 -202 -29 46 c-55 86 -195 129 -313 94 -74 -21 -156
-95 -189 -168 -20 -44 -24 -70 -24 -148 0 -84 3 -101 27 -147 63 -118 198
-164 330 -112 37 15 68 20 103 17 51 -4 51 -4 47 23 -2 15 4 51 13 79 9 28 15
54 12 57 -14 13 -71 -12 -114 -51 -120 -105 -132 -111 -173 -78 -21 17 -22 20
-7 48 22 41 90 103 178 162 72 48 126 100 131 125 1 7 5 -107 8 -253 5 -229 6
-199 8 223 1 268 0 487 -3 487 -3 0 -5 -91 -5 -202z m-221 -134 c82 -69 58
-171 -74 -314 -17 -19 -39 -46 -48 -59 l-16 -25 -17 40 c-9 21 -19 75 -22 120
-6 103 16 184 63 231 40 40 72 42 114 7z"/>
<path d="M8020 4150 c0 -5 11 -10 24 -10 54 0 56 -13 56 -395 0 -266 -3 -355
-12 -367 -7 -9 -29 -21 -48 -27 -24 -6 59 -9 279 -8 l314 2 23 66 c30 89 38
129 26 129 -5 0 -15 -15 -22 -32 -21 -53 -60 -99 -96 -114 -23 -9 -74 -14
-159 -14 l-125 0 2 163 3 162 45 23 c36 19 56 23 100 19 l55 -5 29 49 c17 26
36 51 43 53 7 3 13 10 13 16 0 16 -146 12 -179 -5 -16 -8 -47 -35 -70 -61
l-41 -47 0 188 0 187 53 -7 c64 -9 103 -24 162 -65 25 -17 60 -34 78 -37 32
-5 34 -3 46 38 7 24 22 56 32 70 10 14 16 29 12 33 -11 11 -643 7 -643 -4z"/>
<path d="M11377 4140 c-32 -26 -44 -79 -26 -121 25 -62 127 -76 169 -22 33 42
24 117 -19 150 -26 20 -95 16 -124 -7z"/>
<path d="M7065 4083 c-22 -8 -78 -17 -123 -20 -83 -6 -83 -6 -47 -19 20 -6 40
-15 43 -19 4 -4 9 -143 12 -310 l5 -303 25 -28 c35 -37 80 -54 145 -54 55 0
115 21 115 40 0 15 -26 12 -40 -5 -17 -21 -44 -19 -66 6 -17 19 -19 41 -22
206 -5 229 -4 233 48 233 26 0 40 5 40 13 0 7 9 30 20 52 11 22 20 41 20 43 0
7 -94 -4 -114 -13 -18 -8 -19 -3 -14 93 3 56 2 101 -1 101 -3 -1 -24 -8 -46
-16z"/>
<path d="M4170 3931 c-94 -31 -168 -99 -195 -181 -19 -56 -21 -170 -5 -228 13
-50 64 -119 109 -149 81 -54 228 -58 320 -8 102 56 146 142 145 280 -1 131
-47 210 -157 267 -46 23 -171 34 -217 19z m101 -66 c65 -34 109 -152 109 -290
-1 -125 -36 -185 -109 -185 -78 0 -139 109 -148 267 -7 106 10 168 54 203 31
24 54 25 94 5z"/>
<path d="M5199 3911 c-40 -25 -96 -95 -112 -141 -3 -8 -6 24 -6 73 -1 48 -2
87 -3 87 -2 0 -25 -7 -52 -15 -27 -8 -80 -15 -118 -15 -39 0 -68 -4 -68 -10 0
-5 11 -10 24 -10 54 0 56 -12 56 -264 0 -254 2 -247 -60 -264 -27 -8 7 -10
140 -10 133 0 167 2 140 10 -60 17 -60 18 -60 168 0 158 14 218 65 278 28 32
38 37 74 36 33 -1 50 -8 76 -34 44 -42 55 -91 55 -237 0 -92 4 -126 18 -153
24 -50 83 -80 155 -80 57 0 117 21 117 40 0 15 -26 12 -40 -5 -19 -23 -48 -18
-66 10 -13 20 -18 65 -23 223 -7 212 -9 217 -70 285 -39 43 -74 57 -139 57
-47 0 -67 -6 -103 -29z"/>
<path d="M9345 3925 c-41 -23 -69 -50 -91 -91 -10 -18 -23 -34 -27 -34 -5 0
-7 29 -5 65 2 36 1 65 -3 65 -3 0 -26 -7 -49 -15 -23 -8 -76 -15 -116 -15 -43
0 -74 -4 -74 -10 0 -5 11 -10 25 -10 14 0 34 -9 45 -20 19 -19 20 -33 20 -243
0 -245 -1 -249 -60 -265 -26 -8 8 -10 135 -10 132 0 162 2 132 10 -20 6 -42
19 -48 31 -8 13 -10 73 -7 172 3 140 6 155 31 206 32 66 63 85 112 69 21 -7
39 -24 56 -53 22 -39 24 -54 27 -212 1 -93 -1 -176 -6 -183 -5 -7 -27 -20 -48
-27 -36 -13 -25 -14 136 -14 131 1 166 3 140 11 -19 5 -41 17 -47 26 -17 21
-16 324 0 367 34 88 95 114 151 66 38 -32 49 -80 55 -243 6 -149 7 -158 31
-184 35 -38 80 -54 149 -54 43 0 65 5 82 19 33 26 19 36 -19 14 -31 -18 -32
-18 -54 5 -22 22 -23 31 -29 225 -6 223 -12 249 -79 312 -29 28 -37 30 -104
30 -64 0 -77 -3 -109 -28 -20 -15 -49 -48 -63 -74 l-27 -46 -23 44 c-12 24
-36 57 -53 74 -27 25 -41 30 -94 33 -44 2 -71 -2 -92 -13z"/>
<path d="M10705 3925 c-43 -23 -63 -43 -101 -100 l-34 -50 0 78 c0 42 -1 77
-2 77 -2 0 -25 -7 -52 -15 -27 -8 -80 -15 -118 -15 -39 0 -68 -4 -68 -10 0 -5
11 -10 24 -10 56 0 56 0 56 -388 0 -381 -3 -404 -49 -410 -12 -2 -31 4 -42 14
-10 9 -22 14 -27 10 -4 -4 4 -16 17 -27 23 -19 -30 -19 -3633 -19 -2431 0
-3656 -3 -3656 -10 0 -7 1677 -10 5010 -10 3333 0 5010 3 5010 10 0 7 -434 10
-1282 10 l-1281 0 37 33 c45 38 55 77 56 198 l0 86 47 -23 c132 -67 295 9 354
165 17 46 20 72 17 148 -3 77 -8 100 -33 149 -42 81 -90 117 -163 121 -39 3
-66 -1 -87 -12z m66 -134 c116 -121 40 -417 -102 -398 -20 3 -50 11 -65 19
l-29 13 -3 134 c-2 128 -1 137 24 189 30 61 75 96 114 87 14 -3 41 -23 61 -44z"/>
<path d="M11505 3922 c-19 -10 -64 -17 -122 -20 -51 -2 -93 -8 -93 -13 0 -5
11 -9 23 -9 53 0 57 -19 57 -241 0 -187 2 -207 20 -237 26 -43 90 -71 158 -72
52 0 112 21 112 40 0 15 -26 12 -40 -5 -7 -8 -20 -15 -30 -15 -41 0 -45 21
-50 311 l-5 277 -30 -16z"/>
<path d="M12105 3923 c-20 -11 -62 -18 -122 -21 -51 -2 -90 -8 -87 -13 3 -5
14 -9 25 -9 10 0 28 -9 39 -20 19 -19 20 -33 20 -243 0 -245 -1 -249 -60 -265
-26 -8 8 -10 135 -10 127 0 161 2 135 10 -58 16 -60 24 -60 219 l0 178 28 20
c42 30 112 45 155 33 34 -10 36 -9 46 18 5 15 26 46 46 69 l37 41 -77 0 c-93
0 -133 -16 -183 -76 -20 -24 -40 -44 -46 -44 -5 0 -6 27 -3 65 4 36 5 65 4 65
-1 -1 -15 -8 -32 -17z"/>
<path d="M6036 3918 c-11 -6 -61 -13 -113 -16 -51 -3 -93 -9 -93 -13 0 -5 11
-9 23 -9 49 0 55 -21 59 -211 3 -172 4 -176 33 -235 37 -72 85 -104 158 -104
76 0 158 52 204 130 9 17 20 30 24 30 3 0 9 -18 12 -41 10 -76 74 -119 175
-119 45 0 66 5 86 21 36 29 25 37 -19 13 -35 -18 -35 -18 -57 4 -23 22 -23 26
-23 292 0 149 -2 270 -5 270 -3 0 -27 -7 -54 -15 -27 -8 -82 -15 -123 -15 -47
0 -72 -4 -68 -10 3 -5 15 -10 26 -10 10 0 28 -9 40 -21 20 -20 21 -30 17 -152
-3 -120 -6 -137 -31 -184 -32 -63 -59 -83 -110 -83 -53 0 -76 15 -98 63 -16
37 -19 67 -19 235 0 202 -1 205 -44 180z"/>
<path d="M2692 3038 l3 -143 143 -3 142 -3 0 146 0 145 -145 0 -146 0 3 -142z"/>
<path d="M13080 3035 l0 -146 143 3 142 3 3 143 3 142 -146 0 -145 0 0 -145z"/>
</g>
</svg>
